<svg width="163" height="25" viewBox="0 0 163 25" fill="none" xmlns="http://www.w3.org/2000/svg">
    <path
        d="M24.2935 5.87769V0H7.04135C6.29544 0.000409512 5.58023 0.297052 5.053 0.824694L1.10076 4.76645C0.751436 5.11484 0.474371 5.52879 0.285471 5.98455C0.0965711 6.44031 -0.000442134 6.92889 1.51477e-06 7.42225V16.5778C0.00281336 17.5693 0.398655 18.5194 1.10076 19.2196L5.053 23.1788C5.58167 23.7039 6.29625 23.999 7.04135 24H24.2935V18.1223H5.87769V5.89167L24.2935 5.87769Z"
        fill="#262626" />
    <path
        d="M64.8364 5.8777V5.82114e-06H72.0665C72.436 -0.000748152 72.8019 0.0717478 73.1432 0.213302C73.4845 0.354856 73.7943 0.562661 74.0548 0.8247L78.0071 4.76646C78.3569 5.11467 78.6345 5.52852 78.824 5.98427C79.0135 6.44001 79.1111 6.92868 79.1113 7.42225V16.5778C79.1111 17.0713 79.0135 17.56 78.824 18.0157C78.6345 18.4715 78.3569 18.8853 78.0071 19.2336L74.0548 23.1788C73.5266 23.7045 72.8117 23.9998 72.0665 24H64.8364V18.1223H73.2231V5.89168L64.8364 5.8777Z"
        fill="#262626" />
    <path
        d="M50.572 4.76645L46.6233 0.824694C46.096 0.297052 45.3808 0.000409557 44.6349 4.4871e-08H34.777C34.4071 -6.59792e-05 34.0408 0.0727304 33.6991 0.214232C33.3573 0.355734 33.0468 0.56317 32.7852 0.824694L28.8364 4.76645C28.4869 5.1149 28.2095 5.52879 28.0201 5.98448C27.8306 6.44017 27.7328 6.92873 27.7322 7.42225V16.5778C27.7363 17.5698 28.1334 18.5197 28.8364 19.2196L32.7852 23.1613C33.0468 23.4228 33.3573 23.6303 33.6991 23.7718C34.0408 23.9133 34.4071 23.9861 34.777 23.986H44.6349C45.3808 23.9856 46.096 23.689 46.6233 23.1613L50.572 19.2196C50.9224 18.8718 51.2005 18.4581 51.39 18.0022C51.5795 17.5464 51.6768 17.0575 51.6763 16.5638V7.42225C51.6764 6.92862 51.579 6.43983 51.3895 5.98404C51.1999 5.52824 50.9221 5.11443 50.572 4.76645ZM45.7986 18.1223H33.6099V5.89167H45.7986V18.1223Z"
        fill="url(#paint0_linear_2_4)" />
    <path d="M60.9226 0H55.293V24H60.9226V0Z" fill="url(#paint1_linear_2_4)" />
    <path
        d="M94.7665 14.9284L100.836 5.87769H88.6057V18.1083H106.777V24H89.7589C89.013 23.9996 88.2978 23.7029 87.7706 23.1753L83.8428 19.2196C83.493 18.8714 83.2154 18.4575 83.0259 18.0018C82.8364 17.546 82.7387 17.0573 82.7385 16.5638V7.42225C82.7391 6.92874 82.8369 6.44017 83.0264 5.98448C83.2159 5.52879 83.4933 5.1149 83.8428 4.76645L87.7915 0.824694C88.3188 0.297052 89.034 0.000409512 89.7799 0L106.798 0V5.87769L100.763 14.9284H94.7665Z"
        fill="#262626" />
    <path
        d="M129.645 1.09727L133.723 5.16133C133.943 5.37894 134.118 5.63789 134.238 5.92333C134.358 6.20877 134.42 6.51509 134.422 6.8247V10.7839C134.417 11.4057 134.165 12.0001 133.723 12.4368L128.387 17.8218L134.397 24.0175H128.387L122.376 17.8218V12.2306H128.565V5.59115H116.069V24.007H110.24V5.18476e-06H126.982C127.476 -0.00162688 127.966 0.094476 128.423 0.282786C128.88 0.471096 129.295 0.747897 129.645 1.09727Z"
        fill="#262626" />
    <path
        d="M162.112 12L143.822 7.62143V5.8742H162.112V2.95958e-08H145.37C144.877 -6.19183e-05 144.388 0.0971254 143.932 0.286003C143.477 0.474881 143.063 0.751744 142.714 1.10076L137.822 5.99301V12L156.08 16.424V18.1712H137.832V24.007H154.48C155.454 24.0086 156.391 23.6329 157.094 22.9586L162.112 18.1013V12Z"
        fill="#262626" />
    <defs>
        <linearGradient id="paint0_linear_2_4" x1="26.2435" y1="21.4945" x2="58.9587" y2="-1.583"
            gradientUnits="userSpaceOnUse">
            <stop stop-color="#2EB8CD" />
            <stop offset="1" stop-color="#63B22F" />
        </linearGradient>
        <linearGradient id="paint1_linear_2_4" x1="32.3588" y1="30.1642" x2="65.074" y2="7.08678"
            gradientUnits="userSpaceOnUse">
            <stop stop-color="#2EB8CD" />
            <stop offset="1" stop-color="#63B22F" />
        </linearGradient>
    </defs>
</svg>